# xmcd
#
# Track frame offsets:
#	150
#	14215
#	25810
#	45686
#	57680
#	66330
#	81720
#	97366
#	110779
#	122086
#	134276
#	154615
#	168239
#	184471
#	203820
#	219080
#
# Disc length: 3033 seconds
#
# Revision: 0
# Processed by: cddbd v1.5.2PL0 Copyright (c) Steve Scherf et al.
# Submitted via: audiograbber 1.83.01
#
DISCID=f90bd710
DTITLE=TITANS - EPITAFIO
DYEAR=1900
DGENRE=
TTITLE0=A MELHOR BANDA DE TODOS OS TEMPOS
TTITLE1=ALMA LAVADA
TTITLE2=BANANAS
TTITLE3=BOM GOSTO
TTITLE4=CUIDADO COM VOCE
TTITLE5=DAQUI PRA LA
TTITLE6=É BOM DESCONFIAR
TTITLE7=EPITAFIO
TTITLE8=EU NAO PRESTO
TTITLE9=ISSO
TTITLE10=MESMO SOZINHO
TTITLE11=MUNDO CAO
TTITLE12=NAO FUJA DA DOR
TTITLE13=O MUNDO E BOM SEBASTIAO
TTITLE14=UM MORTO DE FERIAS
TTITLE15=VAMOS AO TRABALHO
EXTD=kiroiva@hotmail.com
EXTT0=
EXTT1=
EXTT2=
EXTT3=
EXTT4=
EXTT5=
EXTT6=
EXTT7=
EXTT8=
EXTT9=
EXTT10=
EXTT11=
EXTT12=
EXTT13=
EXTT14=
EXTT15=
PLAYORDER=
